<svg id="Capa_1" data-name="Capa 1" xmlns="http://www.w3.org/2000/svg" xmlns:xlink="http://www.w3.org/1999/xlink" viewBox="0 0 694 328"><defs><style>.cls-1{fill:none;}.cls-2{fill:#1a1a1a;}.cls-3{clip-path:url(#clip-path);}.cls-4{clip-path:url(#clip-path-2);}.cls-5{clip-path:url(#clip-path-3);}.cls-6{clip-path:url(#clip-path-4);}.cls-7{clip-path:url(#clip-path-5);}.cls-8{clip-path:url(#clip-path-6);}.cls-9{clip-path:url(#clip-path-7);}.cls-10{clip-path:url(#clip-path-8);}</style><clipPath id="clip-path"><rect class="cls-1" x="355.26" y="15" width="143" height="205" transform="translate(853.52 235) rotate(180)"/></clipPath><clipPath id="clip-path-2"><rect class="cls-1" x="288.54" y="16" width="95" height="126" transform="translate(672.08 158) rotate(180)"/></clipPath><clipPath id="clip-path-3"><path class="cls-2" d="M399.27,54a55.53,55.53,0,0,0-21.62,4.13c-6.58,2.75-11.74,7.37-17.38,11.75-2.73,2.12-8.87,11-11.62,17.75S343.83,112.71,343,121c-.12,1.22-2,16.3-2.7,18-5.14,12.21-21.86,21.26-19.44,27.18,2.75,6.75,35,22.92,40,28s10.21-34.56,16.79-31.81a55.53,55.53,0,0,0,21.62,4.12A56.43,56.43,0,0,0,421,162.37a51,51,0,0,0,17.38-11.75,55.25,55.25,0,0,0,11.5-17.75A59.5,59.5,0,0,0,454,110.24a59.45,59.45,0,0,0-4.12-22.62,55.14,55.14,0,0,0-11.5-17.75A50.81,50.81,0,0,0,421,58.12,56.44,56.44,0,0,0,399.27,54ZM399,19.74a105.37,105.37,0,0,1,38.25,6.75,92.32,92.32,0,0,1,30.5,19A85.84,85.84,0,0,1,487.9,74.24a89.84,89.84,0,0,1,7.12,36,89.61,89.61,0,0,1-7.12,36.13A86.23,86.23,0,0,1,467.77,175a92.66,92.66,0,0,1-30.37,19,104.41,104.41,0,0,1-38.13,6.75,106.3,106.3,0,0,1-38.12-6.62c-11.58-4.42-45.75-36.63-50.5-47.63s-4.79-23.14-4.79-36.31c0-2.52,0-5,0-7.46.16-10.16.93-19.67,4.76-28.6a85.58,85.58,0,0,1,20.12-28.88,91,91,0,0,1,30.38-18.87A105.37,105.37,0,0,1,399,19.74Z"/></clipPath><clipPath id="clip-path-4"><rect class="cls-2" x="291.54" y="13.09" width="65" height="182" transform="translate(648.08 208.18) rotate(180)"/></clipPath><clipPath id="clip-path-5"><rect class="cls-1" x="150.54" width="143" height="205"/></clipPath><clipPath id="clip-path-6"><rect class="cls-1" x="265.26" y="78" width="95" height="126"/></clipPath><clipPath id="clip-path-7"><path class="cls-2" d="M249.53,166a55.53,55.53,0,0,0,21.62-4.13c6.58-2.75,11.74-7.37,17.38-11.75,2.73-2.12,8.87-11,11.62-17.75S305,107.29,305.8,99c.12-1.22,2-16.3,2.7-18,5.14-12.21,21.86-21.26,19.44-27.18-2.75-6.75-35-22.92-40-28s-10.21,34.56-16.79,31.81a55.53,55.53,0,0,0-21.62-4.12,56.43,56.43,0,0,0-21.75,4.12A51,51,0,0,0,210.4,69.38a55.25,55.25,0,0,0-11.5,17.75,59.5,59.5,0,0,0-4.12,22.63,59.45,59.45,0,0,0,4.12,22.62,55.14,55.14,0,0,0,11.5,17.75,50.81,50.81,0,0,0,17.38,11.75A56.44,56.44,0,0,0,249.53,166Zm.25,34.25a105.37,105.37,0,0,1-38.25-6.75,92.32,92.32,0,0,1-30.5-19,85.84,85.84,0,0,1-20.13-28.75,89.84,89.84,0,0,1-7.12-36,89.61,89.61,0,0,1,7.12-36.13A86.23,86.23,0,0,1,181,45,92.66,92.66,0,0,1,211.4,26a104.41,104.41,0,0,1,38.13-6.75,106.3,106.3,0,0,1,38.12,6.62c11.58,4.42,45.75,36.63,50.5,47.63s4.79,23.14,4.79,36.31c0,2.52,0,5,0,7.46-.16,10.16-.93,19.67-4.76,28.6A85.58,85.58,0,0,1,318,174.76a91,91,0,0,1-30.38,18.87A105.37,105.37,0,0,1,249.78,200.26Z"/></clipPath><clipPath id="clip-path-8"><rect class="cls-2" x="292.26" y="24.91" width="65" height="182"/></clipPath></defs><path class="cls-2" d="M15.83,197.44v-175H56.58v142h87.25v33Z"/><path class="cls-2" d="M524.83,197.44v-175h75.75q23.49,0,40.5,7.63t26.25,21.87q9.24,14.25,9.25,33.75,0,19.75-9.25,33.88t-26.25,21.87q-17,7.76-40.5,7.75h-53.5l18.5-18.25v66.5Zm40.75-62-18.5-19.25h51.25q18.49,0,28-8t9.5-22.5q0-14.49-9.5-22.37t-28-7.88H547.08l18.5-19.25Z"/><g class="cls-3"><path class="cls-2" d="M399.45,19.55A105.37,105.37,0,0,1,437.7,26.3a92.32,92.32,0,0,1,30.5,19,85.81,85.81,0,0,1,20.12,28.75,89.84,89.84,0,0,1,7.13,36,89.61,89.61,0,0,1-7.13,36.13A86.2,86.2,0,0,1,468.2,174.8a92.6,92.6,0,0,1-30.38,19,104.36,104.36,0,0,1-38.12,6.75,106.39,106.39,0,0,1-38.13-6.62,34.67,34.67,0,0,1-6.39-3.59c-14.59-9.83-40.05-34.65-44.11-44-4.75-11-4.79-23.14-4.79-36.31,0-13,0-25,4.79-36.06A85.61,85.61,0,0,1,331.2,45.05a91,91,0,0,1,30.37-18.87A105.46,105.46,0,0,1,399.45,19.55Zm.25,34.25a55.61,55.61,0,0,0-21.63,4.13c-6.58,2.75-11.9,7.17-17.37,11.75-5.16,4.32-8.88,11-11.63,17.75s-4,17.27-4.79,25.56c-1,10-28.57,48.3-23,53,40.26,34,30.26,29,34.26,24,4.45-5.57,17-30,17-30,6.59,2.75,19.33,6.3,27.16,6.3a56.43,56.43,0,0,0,21.75-4.12,50.82,50.82,0,0,0,17.37-11.75,55.25,55.25,0,0,0,11.5-17.75,59.51,59.51,0,0,0,4.13-22.63,59.45,59.45,0,0,0-4.13-22.62,55.14,55.14,0,0,0-11.5-17.75,50.68,50.68,0,0,0-17.37-11.75A56.44,56.44,0,0,0,399.7,53.8Z"/><rect class="cls-1" x="379.37" y="-3.18" width="119" height="254.46" transform="translate(877.73 248.11) rotate(180)"/></g><g class="cls-4"><path class="cls-2" d="M399.27,54a55.53,55.53,0,0,0-21.62,4.13c-6.58,2.75-11.74,7.37-17.38,11.75-2.73,2.12-8.87,11-11.62,17.75S343.83,112.71,343,121c-.12,1.22-2,16.3-2.7,18-5.14,12.21-21.86,21.26-19.44,27.18,2.75,6.75,35,22.92,40,28s10.21-34.56,16.79-31.81a55.53,55.53,0,0,0,21.62,4.12A56.43,56.43,0,0,0,421,162.37a51,51,0,0,0,17.38-11.75,55.25,55.25,0,0,0,11.5-17.75A59.5,59.5,0,0,0,454,110.24a59.45,59.45,0,0,0-4.12-22.62,55.14,55.14,0,0,0-11.5-17.75A50.81,50.81,0,0,0,421,58.12,56.44,56.44,0,0,0,399.27,54ZM399,19.74a105.37,105.37,0,0,1,38.25,6.75,92.32,92.32,0,0,1,30.5,19A85.84,85.84,0,0,1,487.9,74.24a89.84,89.84,0,0,1,7.12,36,89.61,89.61,0,0,1-7.12,36.13A86.23,86.23,0,0,1,467.77,175a92.66,92.66,0,0,1-30.37,19,104.41,104.41,0,0,1-38.13,6.75,106.3,106.3,0,0,1-38.12-6.62c-11.58-4.42-45.75-36.63-50.5-47.63s-4.79-23.14-4.79-36.31c0-2.52,0-5,0-7.46.16-10.16.93-19.67,4.76-28.6a85.58,85.58,0,0,1,20.12-28.88,91,91,0,0,1,30.38-18.87A105.37,105.37,0,0,1,399,19.74Z"/><g class="cls-5"><rect class="cls-2" x="291.54" y="13.09" width="65" height="182" transform="translate(648.08 208.18) rotate(180)"/><g class="cls-6"><path class="cls-2" d="M399.27,48.21a55.56,55.56,0,0,0-21.62,4.13,52.49,52.49,0,0,0-17.38,11.75,54.16,54.16,0,0,0-11.62,17.75c-2.75,6.75-4,17.27-4.79,25.56-1,10-25.75,46.25-23,53s35,22.92,40,28,10.21-34.56,16.79-31.81a55.56,55.56,0,0,0,21.62,4.12A56.43,56.43,0,0,0,421,156.59a50.86,50.86,0,0,0,17.38-11.75,55.25,55.25,0,0,0,11.5-17.75A59.5,59.5,0,0,0,454,104.46a59.45,59.45,0,0,0-4.12-22.62,55.14,55.14,0,0,0-11.5-17.75A50.72,50.72,0,0,0,421,52.34,56.44,56.44,0,0,0,399.27,48.21ZM399,14a105.37,105.37,0,0,1,38.25,6.75,92.32,92.32,0,0,1,30.5,19A85.84,85.84,0,0,1,487.9,68.46a89.84,89.84,0,0,1,7.12,36,89.61,89.61,0,0,1-7.12,36.13,86.23,86.23,0,0,1-20.13,28.62,92.56,92.56,0,0,1-30.37,19A104.41,104.41,0,0,1,399.27,195a106.34,106.34,0,0,1-38.12-6.62c-11.58-4.42-45.75-36.63-50.5-47.63s-4.79-23.14-4.79-36.31c0-13,0-25,4.79-36.06a85.58,85.58,0,0,1,20.12-28.88,91,91,0,0,1,30.38-18.87A105.41,105.41,0,0,1,399,14Z"/><path class="cls-2" d="M248,14a105.45,105.45,0,0,1,38.25,6.75,92.52,92.52,0,0,1,30.5,19A86,86,0,0,1,336.9,68.46a89.84,89.84,0,0,1,7.13,36,89.61,89.61,0,0,1-7.13,36.13,86.34,86.34,0,0,1-20.12,28.62,92.71,92.71,0,0,1-30.38,19A104.4,104.4,0,0,1,248.28,195a106.35,106.35,0,0,1-38.13-6.62,91.06,91.06,0,0,1-30.37-18.88,85.84,85.84,0,0,1-20.13-28.75,90.46,90.46,0,0,1-7.12-36.25,90.7,90.7,0,0,1,7.12-36.12,85.47,85.47,0,0,1,20.13-28.88,90.88,90.88,0,0,1,30.37-18.87A105.43,105.43,0,0,1,248,14Zm.25,34.25a55.58,55.58,0,0,0-21.63,4.13,52.45,52.45,0,0,0-17.37,11.75,54.18,54.18,0,0,0-11.63,17.75,59.45,59.45,0,0,0-4.12,22.62,59.5,59.5,0,0,0,4.12,22.63,54.29,54.29,0,0,0,11.63,17.75,52.6,52.6,0,0,0,17.37,11.75,55.58,55.58,0,0,0,21.63,4.12A56.5,56.5,0,0,0,270,156.59a50.91,50.91,0,0,0,17.37-11.75,55.25,55.25,0,0,0,11.5-17.75A59.51,59.51,0,0,0,303,104.46a59.45,59.45,0,0,0-4.13-22.62,55.14,55.14,0,0,0-11.5-17.75A50.77,50.77,0,0,0,270,52.34,56.51,56.51,0,0,0,248.28,48.21Z"/></g></g></g><g class="cls-7"><path class="cls-2" d="M249.35,200.45a105.37,105.37,0,0,1-38.25-6.75,92.32,92.32,0,0,1-30.5-19A85.81,85.81,0,0,1,160.48,146a89.84,89.84,0,0,1-7.13-36,89.61,89.61,0,0,1,7.13-36.13A86.2,86.2,0,0,1,180.6,45.2,92.6,92.6,0,0,1,211,26.2a104.36,104.36,0,0,1,38.12-6.75,106.39,106.39,0,0,1,38.13,6.62,34.67,34.67,0,0,1,6.39,3.59c14.59,9.83,40.05,34.65,44.11,44,4.75,11,4.79,23.14,4.79,36.31,0,13,0,25-4.79,36.06A85.61,85.61,0,0,1,317.6,175a91,91,0,0,1-30.37,18.87A105.46,105.46,0,0,1,249.35,200.45Zm-.25-34.25a55.61,55.61,0,0,0,21.63-4.13c6.58-2.75,11.9-7.17,17.37-11.75,5.16-4.32,8.88-11,11.63-17.75s4-17.27,4.79-25.56c1-10,28.57-48.3,23-53-40.26-34-30.26-29-34.26-24-4.45,5.57-17,30-17,30-6.59-2.75-19.33-6.3-27.16-6.3a56.43,56.43,0,0,0-21.75,4.12A50.82,50.82,0,0,0,210,69.57a55.25,55.25,0,0,0-11.5,17.75A59.51,59.51,0,0,0,194.35,110a59.45,59.45,0,0,0,4.13,22.62A55.14,55.14,0,0,0,210,150.32a50.68,50.68,0,0,0,17.37,11.75A56.44,56.44,0,0,0,249.1,166.2Z"/><rect class="cls-1" x="150.43" y="-31.28" width="119" height="254.46"/></g><g class="cls-8"><path class="cls-2" d="M249.53,166a55.53,55.53,0,0,0,21.62-4.13c6.58-2.75,11.74-7.37,17.38-11.75,2.73-2.12,8.87-11,11.62-17.75S305,107.29,305.8,99c.12-1.22,2-16.3,2.7-18,5.14-12.21,21.86-21.26,19.44-27.18-2.75-6.75-35-22.92-40-28s-10.21,34.56-16.79,31.81a55.53,55.53,0,0,0-21.62-4.12,56.43,56.43,0,0,0-21.75,4.12A51,51,0,0,0,210.4,69.38a55.25,55.25,0,0,0-11.5,17.75,59.5,59.5,0,0,0-4.12,22.63,59.45,59.45,0,0,0,4.12,22.62,55.14,55.14,0,0,0,11.5,17.75,50.81,50.81,0,0,0,17.38,11.75A56.44,56.44,0,0,0,249.53,166Zm.25,34.25a105.37,105.37,0,0,1-38.25-6.75,92.32,92.32,0,0,1-30.5-19,85.84,85.84,0,0,1-20.13-28.75,89.84,89.84,0,0,1-7.12-36,89.61,89.61,0,0,1,7.12-36.13A86.23,86.23,0,0,1,181,45,92.66,92.66,0,0,1,211.4,26a104.41,104.41,0,0,1,38.13-6.75,106.3,106.3,0,0,1,38.12,6.62c11.58,4.42,45.75,36.63,50.5,47.63s4.79,23.14,4.79,36.31c0,2.52,0,5,0,7.46-.16,10.16-.93,19.67-4.76,28.6A85.58,85.58,0,0,1,318,174.76a91,91,0,0,1-30.38,18.87A105.37,105.37,0,0,1,249.78,200.26Z"/><g class="cls-9"><rect class="cls-2" x="292.26" y="24.91" width="65" height="182"/><g class="cls-10"><path class="cls-2" d="M249.53,171.79a55.56,55.56,0,0,0,21.62-4.13,52.49,52.49,0,0,0,17.38-11.75,54.16,54.16,0,0,0,11.62-17.75c2.75-6.75,4-17.27,4.79-25.56,1-10,25.75-46.25,23-53s-35-22.92-40-28-10.21,34.56-16.79,31.81a55.56,55.56,0,0,0-21.62-4.12,56.43,56.43,0,0,0-21.75,4.12A50.86,50.86,0,0,0,210.4,75.16a55.25,55.25,0,0,0-11.5,17.75,59.5,59.5,0,0,0-4.12,22.63,59.45,59.45,0,0,0,4.12,22.62,55.14,55.14,0,0,0,11.5,17.75,50.72,50.72,0,0,0,17.38,11.75A56.44,56.44,0,0,0,249.53,171.79Zm.25,34.25a105.37,105.37,0,0,1-38.25-6.75,92.32,92.32,0,0,1-30.5-19,85.84,85.84,0,0,1-20.13-28.75,89.84,89.84,0,0,1-7.12-36,89.61,89.61,0,0,1,7.12-36.13A86.23,86.23,0,0,1,181,50.79a92.56,92.56,0,0,1,30.37-19A104.41,104.41,0,0,1,249.53,25a106.34,106.34,0,0,1,38.12,6.62c11.58,4.42,45.75,36.63,50.5,47.63s4.79,23.14,4.79,36.31c0,13,0,25-4.79,36.06A85.58,85.58,0,0,1,318,180.54a91,91,0,0,1-30.38,18.87A105.41,105.41,0,0,1,249.78,206Z"/><path class="cls-2" d="M400.77,206a105.45,105.45,0,0,1-38.25-6.75,92.52,92.52,0,0,1-30.5-19,86,86,0,0,1-20.12-28.75,89.84,89.84,0,0,1-7.13-36,89.61,89.61,0,0,1,7.13-36.13A86.34,86.34,0,0,1,332,50.79a92.71,92.71,0,0,1,30.38-19A104.4,104.4,0,0,1,400.52,25a106.35,106.35,0,0,1,38.13,6.62A91.06,91.06,0,0,1,469,50.54a85.84,85.84,0,0,1,20.13,28.75,90.46,90.46,0,0,1,7.12,36.25,90.7,90.7,0,0,1-7.12,36.12A85.47,85.47,0,0,1,469,180.54a90.88,90.88,0,0,1-30.37,18.87A105.43,105.43,0,0,1,400.77,206Zm-.25-34.25a55.58,55.58,0,0,0,21.63-4.13,52.45,52.45,0,0,0,17.37-11.75,54.18,54.18,0,0,0,11.63-17.75,59.45,59.45,0,0,0,4.12-22.62,59.5,59.5,0,0,0-4.12-22.63,54.29,54.29,0,0,0-11.63-17.75,52.6,52.6,0,0,0-17.37-11.75,55.58,55.58,0,0,0-21.63-4.12,56.5,56.5,0,0,0-21.75,4.12A50.91,50.91,0,0,0,361.4,75.16a55.25,55.25,0,0,0-11.5,17.75,59.51,59.51,0,0,0-4.13,22.63,59.45,59.45,0,0,0,4.13,22.62,55.14,55.14,0,0,0,11.5,17.75,50.77,50.77,0,0,0,17.37,11.75A56.51,56.51,0,0,0,400.52,171.79Z"/></g></g></g><path class="cls-2" d="M375.28,313.84a26.51,26.51,0,0,1-13-3.15,23.17,23.17,0,0,1-8.95-8.64,26.12,26.12,0,0,1,0-25.2,22.83,22.83,0,0,1,8.95-8.59,26.82,26.82,0,0,1,13-3.11,25.31,25.31,0,0,1,11.56,2.57,18.18,18.18,0,0,1,7.88,7.6l-6.57,4.23a14.65,14.65,0,0,0-5.72-5.17,16.14,16.14,0,0,0-7.24-1.67,16.81,16.81,0,0,0-8.37,2.07,15.32,15.32,0,0,0-5.85,5.81,17.39,17.39,0,0,0-2.16,8.86,17.66,17.66,0,0,0,2.16,8.91,15.22,15.22,0,0,0,5.85,5.85,16.81,16.81,0,0,0,8.37,2.07,16.13,16.13,0,0,0,7.24-1.66,14.68,14.68,0,0,0,5.72-5.18l6.57,4.14a18.9,18.9,0,0,1-7.88,7.61A24.59,24.59,0,0,1,375.28,313.84Z"/><path class="cls-2" d="M405.25,313.3V246.52h8.64V313.3Z"/><path class="cls-2" d="M450.79,313.84a25.63,25.63,0,0,1-12.74-3.15,23.23,23.23,0,0,1-8.86-8.68A24.4,24.4,0,0,1,426,289.45a24.06,24.06,0,0,1,3.24-12.55,23.57,23.57,0,0,1,8.82-8.6,25.54,25.54,0,0,1,12.78-3.15,25.89,25.89,0,0,1,12.73,3.11,22.69,22.69,0,0,1,8.82,8.59,26.41,26.41,0,0,1,0,25.2,23,23,0,0,1-8.82,8.64A25.59,25.59,0,0,1,450.79,313.84Zm0-7.56a16.36,16.36,0,0,0,8.23-2.07,14.62,14.62,0,0,0,5.72-5.89,18.36,18.36,0,0,0,2.07-8.87,18,18,0,0,0-2.07-8.86,14.8,14.8,0,0,0-5.72-5.81,16.36,16.36,0,0,0-8.23-2.07,16.13,16.13,0,0,0-8.19,2.07,15.52,15.52,0,0,0-5.76,5.81,17.39,17.39,0,0,0-2.16,8.86,17.74,17.74,0,0,0,2.16,8.87,15.32,15.32,0,0,0,5.76,5.89A16.13,16.13,0,0,0,450.79,306.28Z"/><path class="cls-2" d="M480.67,272.71V265.6h30.42v7.11Zm23.22,41.13q-7.2,0-11.16-3.87t-4-11.07V255.16h8.64v43.38a8.38,8.38,0,0,0,1.93,5.94,7.22,7.22,0,0,0,5.54,2.07,10.19,10.19,0,0,0,6.75-2.25l2.7,6.21A12.58,12.58,0,0,1,509.6,313,20.05,20.05,0,0,1,503.89,313.84Z"/><path class="cls-2" d="M550.24,265.15a22.54,22.54,0,0,1,10.3,2.25,16.16,16.16,0,0,1,7,6.84A23.93,23.93,0,0,1,570,285.85V313.3H561.4V286.84q0-6.93-3.38-10.44t-9.49-3.51a17,17,0,0,0-8,1.8,12.34,12.34,0,0,0-5.27,5.31,18.62,18.62,0,0,0-1.84,8.73V313.3h-8.64V246.52h8.64v32l-1.71-3.42a16.57,16.57,0,0,1,7.2-7.29A23.61,23.61,0,0,1,550.24,265.15Z"/><path class="cls-2" d="M607.3,313.84a27.79,27.79,0,0,1-13.46-3.15,22.7,22.7,0,0,1-9-8.64,24.58,24.58,0,0,1-3.19-12.6,25.15,25.15,0,0,1,3.1-12.6,22.4,22.4,0,0,1,8.55-8.59,24.38,24.38,0,0,1,12.29-3.11,24.07,24.07,0,0,1,12.24,3.06,21.66,21.66,0,0,1,8.32,8.6,26.57,26.57,0,0,1,3,12.91c0,.36,0,.78,0,1.26s-.07.93-.13,1.35H588.4v-6.21h36.09L621,288.28a16,16,0,0,0-1.89-8.19,14.44,14.44,0,0,0-5.45-5.62,16.9,16.9,0,0,0-16.06,0,14.27,14.27,0,0,0-5.49,5.67,17.14,17.14,0,0,0-2,8.32v1.44a16.43,16.43,0,0,0,2.2,8.51,15.15,15.15,0,0,0,6.17,5.8,19.34,19.34,0,0,0,9.09,2.07,19.84,19.84,0,0,0,7.69-1.44,16.87,16.87,0,0,0,6.08-4.32l4.77,5.58a20.91,20.91,0,0,1-8.06,5.76A28,28,0,0,1,607.3,313.84Z"/><path class="cls-2" d="M654.82,313.84a38.83,38.83,0,0,1-11.3-1.62,26.49,26.49,0,0,1-8.41-4l3.6-6.84a29.53,29.53,0,0,0,7.56,3.51,30,30,0,0,0,9.18,1.44q6,0,8.68-1.71a5.38,5.38,0,0,0,2.66-4.77,4.2,4.2,0,0,0-1.62-3.51,11.07,11.07,0,0,0-4.28-1.89q-2.65-.63-5.89-1.12t-6.48-1.26a25.8,25.8,0,0,1-5.94-2.16,11.22,11.22,0,0,1-4.32-3.87,12,12,0,0,1-1.62-6.62,12.25,12.25,0,0,1,2.43-7.56,15.37,15.37,0,0,1,6.88-5,28.83,28.83,0,0,1,10.58-1.76,41.6,41.6,0,0,1,9.49,1.13,23.61,23.61,0,0,1,7.88,3.19l-3.69,6.84a20.39,20.39,0,0,0-6.75-3,31.13,31.13,0,0,0-7-.81q-5.67,0-8.46,1.85a5.49,5.49,0,0,0-2.79,4.72,4.47,4.47,0,0,0,1.66,3.74,12,12,0,0,0,4.32,2,53.51,53.51,0,0,0,5.9,1.22q3.24.5,6.48,1.26a26.24,26.24,0,0,1,5.89,2.11,11.43,11.43,0,0,1,4.32,3.78,11.28,11.28,0,0,1,1.67,6.48,11.59,11.59,0,0,1-2.52,7.47,16.31,16.31,0,0,1-7.11,4.91A30.77,30.77,0,0,1,654.82,313.84Z"/></svg>